<?xml version="1.0" encoding="UTF-8"?>
<svg id="Layer_1" data-name="Layer 1" xmlns="http://www.w3.org/2000/svg" viewBox="0 0 1000.15 1000.15">
  <defs>
    <style>
      .cls-1 {
        fill: #fff;
      }
    </style>
  </defs>
  <path class="cls-1" d="M588.81,830.84v48.83h-97.66v-97.66h48.83s0-48.83,0-48.83h48.83s0-48.83,0-48.83h48.83s0-48.83,0-48.83h48.83s0-48.83,0-48.83h48.83s0-48.83,0-48.83h48.83s0-48.83,0-48.83h-48.83v-48.83s-48.83,0-48.83,0v-48.83s-48.83,0-48.83,0v-48.83s-48.83,0-48.83,0v-48.83s-48.83,0-48.83,0v-48.83s-48.83,0-48.83,0v-97.66h97.66v48.83s48.83,0,48.83,0v48.83s48.83,0,48.83,0v48.83s48.83,0,48.83,0v48.83s48.83,0,48.83,0v48.83s48.83,0,48.83,0v48.83s48.83,0,48.83,0v146.48h-48.83s0,48.83,0,48.83h-48.83s0,48.83,0,48.83h-48.83s0,48.83,0,48.83h-48.83s0,48.83,0,48.83h-48.83s0,48.83,0,48.83h-48.83Z"/>
  <path class="cls-1" d="M195.81,830.84v48.83h-97.66v-97.66h48.83s0-48.83,0-48.83h48.83s0-48.83,0-48.83h48.83s0-48.83,0-48.83h48.83s0-48.83,0-48.83h48.83s0-48.83,0-48.83h48.83s0-48.83,0-48.83h-48.83v-48.83s-48.83,0-48.83,0v-48.83s-48.83,0-48.83,0v-48.83s-48.83,0-48.83,0v-48.83s-48.83,0-48.83,0v-48.83s-48.83,0-48.83,0v-97.66h97.66v48.83s48.83,0,48.83,0v48.83s48.83,0,48.83,0v48.83s48.83,0,48.83,0v48.83s48.83,0,48.83,0v48.83s48.83,0,48.83,0v48.83s48.83,0,48.83,0v146.48h-48.83s0,48.83,0,48.83h-48.83s0,48.83,0,48.83h-48.83s0,48.83,0,48.83h-48.83s0,48.83,0,48.83h-48.83s0,48.83,0,48.83h-48.83Z"/>
</svg>