<?xml version="1.0" encoding="UTF-8"?>
<svg id="Layer_1" data-name="Layer 1" xmlns="http://www.w3.org/2000/svg" viewBox="0 0 783.64 732.45">
  <defs>
    <style>
      .cls-1 {
        fill: red;
      }
    </style>
  </defs>
  <path class="cls-1" d="M490.66,683.62v48.83h-97.66v-97.66h48.83v-48.83h48.83v-48.83h48.83v-48.83h48.83v-48.83h48.83v-48.83h48.83v-48.83h-48.83v-48.83h-48.83v-48.83h-48.83v-48.83h-48.83v-48.83h-48.83v-48.83h-48.83V0h97.66v48.83h48.83v48.83h48.83v48.83h48.83v48.83h48.83v48.83h48.83v48.83h48.83v146.48h-48.83v48.83h-48.83v48.83h-48.83v48.83h-48.83v48.83h-48.83v48.83h-48.83,0Z"/>
  <path class="cls-1" d="M97.66,683.62v48.83H0v-97.66h48.83v-48.83h48.83v-48.83h48.83v-48.83h48.83v-48.83h48.83v-48.83h48.83v-48.83h-48.83v-48.83h-48.83v-48.83h-48.83v-48.83h-48.83v-48.83h-48.83v-48.83H0V0h97.66v48.83h48.83v48.83h48.83v48.83h48.83v48.83h48.83v48.83h48.83v48.83h48.83v146.48h-48.83v48.83h-48.83v48.83h-48.83v48.83h-48.83v48.83h-48.83v48.83h-48.83,0Z"/>
</svg>