<svg width="959" height="994" viewBox="0 0 959 994" fill="none" xmlns="http://www.w3.org/2000/svg">
<path d="M341.797 830.344V781.516H292.969V732.688H244.141V683.859H195.312V635.031H146.484V586.203H97.6562V439.719H146.484V390.891H195.312V342.062H244.141V293.234H292.969V244.406H341.797V195.578H390.625V146.75H488.281V244.406H439.453V293.234H390.625V342.062H341.797V390.891H292.969V439.719H244.141V488.547H195.312V537.375H244.141V586.203H292.969V635.031H341.797V683.859H390.625V732.688H439.453V781.516H488.281V879.172H390.625V830.344H341.797Z" fill="white"/>
<path d="M734.797 830.344V781.516H685.969V732.688H637.141V683.859H588.312V635.031H539.484V586.203H490.656V439.719H539.484V390.891H588.312V342.062H637.141V293.234H685.969V244.406H734.797V195.578H783.625V146.75H881.281V244.406H832.453V293.234H783.625V342.062H734.797V390.891H685.969V439.719H637.141V488.547H588.312V537.375H637.141V586.203H685.969V635.031H734.797V683.859H783.625V732.688H832.453V781.516H881.281V879.172H783.625V830.344H734.797Z" fill="white"/>
</svg>
