<?xml version="1.0" encoding="UTF-8"?>
<svg id="Layer_1" data-name="Layer 1" xmlns="http://www.w3.org/2000/svg" viewBox="0 0 783.62 732.42">
  <defs>
    <style>
      .cls-1 {
        fill: red;
      }
    </style>
  </defs>
  <path class="cls-1" d="M244.14,683.59v-48.83h-48.83v-48.83h-48.83v-48.83h-48.83v-48.83h-48.83v-48.83H0v-146.48h48.83v-48.83h48.83v-48.83h48.83v-48.83h48.83v-48.83h48.83v-48.83h48.83V0h97.66v97.66h-48.83v48.83h-48.83v48.83h-48.83v48.83h-48.83v48.83h-48.83v48.83h-48.83v48.83h48.83v48.83h48.83v48.83h48.83v48.83h48.83v48.83h48.83v48.83h48.83v97.66h-97.66v-48.83h-48.83Z"/>
  <path class="cls-1" d="M637.14,683.59v-48.83h-48.83v-48.83h-48.83v-48.83h-48.83v-48.83h-48.83v-48.83h-48.83v-146.48h48.83v-48.83h48.83v-48.83h48.83v-48.83h48.83v-48.83h48.83v-48.83h48.83V0h97.66v97.66h-48.83v48.83h-48.83v48.83h-48.83v48.83h-48.83v48.83h-48.83v48.83h-48.83v48.83h48.83v48.83h48.83v48.83h48.83v48.83h48.83v48.83h48.83v48.83h48.83v97.66h-97.66v-48.83h-48.83Z"/>
</svg>